<svg xmlns="http://www.w3.org/2000/svg" xml:space="preserve" fill-rule="evenodd" stroke-linejoin="round" stroke-miterlimit="2" clip-rule="evenodd" viewBox="300 200 1249 798">
  <g opacity=".1">
    <path fill="#fff" d="M1046.6 818a301 301 0 0 1-69.5-96.4c-2.8-6.3-5.4-12.5-7.8-19a385 385 0 0 1-13-39c-4.7-18-8.6-65-8.6-65a349.5 349.5 0 0 0-349.2-349.2 349.3 349.3 0 0 0-349.1 349.2 349.3 349.3 0 0 0 537.4 294c9 14.2 18.5 27.8 28.7 41a391.8 391.8 0 0 1-71.4 36.7h-.2l-2.3.9-.3.1-2.2.9h-.3l-2.3 1h-.2c-3.4 1.3-6.8 2.5-10.3 3.6l-.3.1-2.2.7-.5.2-2 .7-.6.2-2 .6-.6.2-2 .6-.5.2-2.2.7h-.3l-2.6.8-2.7.8h-.2l-2.3.7-.6.1-2 .6-.7.2-1.8.4-.9.3-1.7.4-.8.2-1.9.5-.7.2-2 .5-.6.1-2.6.6-2.7.6-.5.1-2 .5-.9.2-1.7.3-1 .2-1.7.4-1 .2-1.6.3-1 .2-1.7.3-.9.2-1.9.3-.7.2-2.7.4-2.6.5-.8.1-1.9.3-1 .2-1.6.2-1 .2-1.7.2-1 .2-1.6.2-1.1.1-1.7.3h-1l-1.8.3-.9.1-2.6.3-2.7.3-.8.1-1.9.2-1 .1-1.7.2h-1l-1.7.2-1.1.1-1.6.1-1.1.1-1.7.2h-1l-1.9.2h-.8l-2.7.2-2.8.1h-.9l-1.8.2h-2.7l-1.2.1h-1.6l-1.1.1H605l-1 .1h-5.5a399.2 399.2 0 0 1-399-399c0-220.3 178.7-399 399-399h11l2.6.2h1l2.6.1h.6l3 .2h.9l2.4.2h.9l3.1.2 3.1.2 1 .1 2.3.2h.8l3.1.4h.6l2.5.3h1l2.5.4h.6l3 .4h.8l2.4.4h.9l3 .5 3 .4 1 .2 2.3.3.8.2 3 .5h.6l2.5.5.9.1 2.4.5h.7l3 .6.7.2 2.3.5 1 .1 2.7.6h.2l3 .7.9.2 2.1.5 1 .2 2.8.7.7.1 2.3.6 1 .2 2.2.6.7.2 2.8.7 1 .3 2 .5 1 .3 2.5.7h.4l.2.2 2.6.7 1 .3 2 .6 1 .3 2.7.8.8.3 2 .6 1.1.4 2 .6.9.3 2.6.9 1 .4 1.9.6 1.1.4 2.1.7.6.2.5.2 2.2.8 1.1.4 1.7.7 1.2.4 2.5 1 1 .4 1.7.6 1.3.5 1.6.7 1.1.4 2.5 1 1.2.5 1.5.7 1.2.5 1.7.7.9.4.9.4 1.6.7 1.3.6 1.4.7 1.3.5 2 1 .3.1 1.3.6 1.3.7 1.4.6 1.3.6 1.3.7.5.2 1.7.9 1.4.7 1.2.6 1.4.7 1.2.6 1.2.6 1.3.7 1 .5 1.5.8 1 .6 1.6.8.7.4 1.4.8 1.5.8 1 .5 1.5.9.8.5 1.5.8 2.1 1.2 1.6 1 .8.5 1.6 1 .7.3 1.5 1 1.7 1 .5.2 1.6 1 .7.5 1.7 1c.6.5 1.3 1 2 1.3l1.7 1.1.5.3 1.7 1.2.4.3 1.7 1 2 1.4 1.8 1.2.4.3 1.8 1.2v.1l2 1.3 2 1.4 1.7 1.3.3.2 1.8 1.3 2 1.4 1.8 1.4h.1l1.8 1.5h.2l1.8 1.5 1.9 1.4 1.8 1.4.1.1 7.4 6a402.2 402.2 0 0 1 66 69.1v.1l5.5 7.6.3.3 1.2 1.8 1.4 2 1.2 1.7.3.4 1.1 1.7.4.5 1 1.6 1.4 2 1 1.6.5.8 1 1.5.5.8 1 1.4.7 1.2.6 1 .8 1.4.7 1 .8 1.4 1 1.6.4.6.6 1 .8 1.5.7 1.1 1 1.6.5 1 1.3 2.3.5.8 1 1.9.5.8 1.3 2.4c3 5.4 5.7 10.8 8.4 16.3l1.4 3 1.4 3 1.4 3c2.3 5 4.5 10.2 6.6 15.3l1.3 3.2 1.2 3 1.2 3.2c2 5.3 3.8 10.6 5.6 15.9-.4 2 0 0 0 0 12.9 39.2 19.8 81 19.8 124.5 0 43.4 14.1 84.3 33.7 119.9A250 250 0 0 0 1250 848a249.5 249.5 0 0 0 0-498.8c-52.9 0-102 16.5-142.3 44.6-6.3-15.7-13.4-31-21-46a299.4 299.4 0 0 1 462.6 250.8 299.4 299.4 0 0 1-462.6 250.8 300.5 300.5 0 0 1-40.1-31.4Z"/>
    <path fill="#fff" d="M802.2 379.1a301 301 0 0 1 69.6 96.5c2.7 6.2 5.3 12.5 7.7 19v-.1a385 385 0 0 1 13 39c4.7 18.2 8.6 65 8.6 65a349.5 349.5 0 0 0 349.2 349.2 349.3 349.3 0 0 0 349.1-349.1 349.3 349.3 0 0 0-537.3-294.1c-9-14-18.6-27.7-28.7-40.9a391.8 391.8 0 0 1 71.4-36.7h.1l2.3-1h.3l2.2-.9.3-.1 2.3-.8.2-.1c3.4-1.3 6.8-2.5 10.3-3.6l.3-.1 2.2-.8.5-.1 2-.7.6-.2 2-.6.6-.2 2-.6.5-.2 2.3-.7h.3l2.6-.8 2.6-.8h.2l2.3-.7.7-.2 1.9-.5.7-.2 1.8-.5.9-.2 1.7-.4.9-.2 1.8-.5.8-.2 2-.5.5-.1 2.6-.6 2.7-.6.5-.1 2-.5.9-.2 1.8-.4.9-.1 1.7-.4 1-.2 1.6-.3 1-.2 1.7-.3 1-.2 1.8-.4h.7l2.7-.6 2.6-.4.8-.1 1.9-.3 1-.2 1.6-.2 1-.2 1.7-.2 1-.2 1.7-.2 1-.2 1.7-.2 1-.1 1.8-.2.9-.1 2.6-.4 2.7-.3h.9l1.8-.2 1-.1 1.7-.2 1.1-.1 1.6-.1 1.1-.1 1.6-.2h1.1l1.7-.2h1l1.9-.2h.9l2.6-.2 2.8-.2h2.7l1-.1h1.8l1-.1h1.7l1.1-.1h2.7l1.8-.1h6.5c220.3 0 399.1 178.7 399.1 399 0 220.2-178.8 399-399 399h-10.5l-.6-.1h-2.6l-1-.1-2.6-.1h-.5l-3.2-.2h-.8l-2.4-.2h-.9l-3-.2h-.1l-3.1-.3h-1l-2.3-.2-.8-.1-3-.3h-.7l-2.5-.3-1-.1-2.5-.3h-.6l-3-.4-.8-.1-2.4-.3-.9-.1-3-.4-3-.5-1-.1-2.3-.4h-.8l-3-.6h-.6l-2.4-.5-1-.2-2.4-.4-.6-.1-3-.6-.8-.1-2.3-.5-.9-.2-2.8-.5h-.2l-3-.7-.8-.2-2.2-.5-.9-.2-2.9-.7-.7-.1-2.2-.6-1-.2-2.2-.6-.8-.2-2.8-.7-1-.3-2-.5-1-.3-2.5-.7-.3-.1h-.3l-2.6-.8-1-.3-2-.6-1-.3-2.7-.8-.8-.3-2-.6-1.1-.4-2-.6-.9-.3-2.6-1-1-.3-1.9-.6-1-.4-2.2-.7-.6-.3-.5-.1-2.2-.8-1.1-.4-1.7-.7-1.1-.4-2.6-1-1-.4-1.7-.7-1.2-.4-1.7-.7-1-.4-2.5-1-1.3-.6-1.5-.6-1.2-.5-1.7-.8-.9-.4-.8-.3-1.7-.8-1.3-.5-1.4-.7-1.3-.6-1.9-.9-.4-.2-1.3-.5-1.3-.7-1.4-.6-1.2-.6-1.4-.7-.5-.2-1.7-.9-1.4-.7-1.2-.6-1.4-.7-1.2-.6-1.2-.6-1.3-.7-1-.6-1.5-.8-1-.5-1.5-.8-.8-.4-1.4-.8-1.5-.8-.9-.5-1.5-.9-1-.5-1.4-.9-2.1-1.2-1.6-1-.8-.4-1.6-1-.6-.3-1.6-1-1.7-1-.4-.3-1.7-1-.7-.4-1.6-1-2-1.4-1.7-1-.5-.4-1.7-1-.5-.4-1.7-1.1-2-1.3-1.7-1.2-.5-.3-1.7-1.2-.2-.1-1.8-1.3-2-1.4-1.8-1.3-.3-.2-1.8-1.3-2-1.4-1.8-1.4v-.1l-2-1.4-1.9-1.5-1.9-1.4-1.8-1.5h-.1l-7.4-6a402.2 402.2 0 0 1-66-69.1v-.2a422 422 0 0 1-5.5-7.5l-.3-.3-1.2-1.8-1.4-2-1.2-1.7-.2-.4-1.2-1.7-.4-.5-1-1.7-1.4-2-1-1.5-.5-.8-1-1.5-.5-.8-.9-1.4-.8-1.2-.6-1-.8-1.4-.7-1-.8-1.4-1-1.6-.3-.6-.7-1-.8-1.5-.7-1.1-.9-1.6-.5-1-1.4-2.3-.5-.8-1-1.9-.5-.8-1.3-2.5c-3-5.3-5.7-10.8-8.4-16.3l-1.4-2.8-1.4-3-1.4-3v-.1c-2.3-5-4.5-10.2-6.6-15.4l-1.3-3-1.2-3.2-1.2-3.1c-2-5.3-3.8-10.6-5.6-16 .5-1.9 0 0 0 0a398.2 398.2 0 0 1-19.8-124.4c0-43.5-14.1-84.3-33.7-119.9a250 250 0 0 0-218.7-129.5 249.5 249.5 0 0 0 0 498.8c52.9 0 102-16.5 142.3-44.6 6.3 15.7 13.4 31 21 46a299.4 299.4 0 0 1-462.6-250.8 299.4 299.4 0 0 1 462.7-250.8 300.5 300.5 0 0 1 40 31.3Z"/>
    <path fill="#fff" d="M1084.8 710.4a198.5 198.5 0 0 1-34.3-111.8s-8.6-81.7-19.2-119.9v-.1.1a449.4 449.4 0 0 0-432.7-329 449.2 449.2 0 0 0-449 449 449.1 449.1 0 0 0 654.5 399c11.5 13 23.6 25.4 36.2 37.2A499 499 0 0 1 99.7 598.6 499 499 0 0 1 598.7 99.8c213 0 395.1 133.9 466.5 322 .4 1 15.8 48 19.7 65 5.5 23.9 9.2 48.4 11.1 73.5l4.5 40.2v4.5l.1 1v.8l.1 1v.9l.2 1v.8l.1 1v.9l.2 1v.8l.2 1v.8l.2 1v.8l.2 1.2.1.6.2 1.5v.3l.4 1.8v.5l.3 1.3v.6l.3 1.1.1.8.3 1 .1.8.2 1 .2.7.2 1 .2.8.2 1 .2.7.3 1 .1.8.3 1 .2.7.3 1 .2.7.3 1.1.2.6.4 1.4v.3l.6 1.7.1.3.5 1.4.2.5.4 1.2.2.6.4 1 .2.7.4 1 .2.7.4 1 .3.6.4 1 .3.7.4 1 .2.6.5 1 .2.6.5 1 .2.6.5 1.1.3.5.6 1.3.1.3.8 1.5v.1l.8 1.6-.1-.3-.3-.5-.2-.5-.2-.3.2.3.2.5.3.5.1.3.2.4.6 1.1.3.5.5 1 .4.6.5 1 .3.6.5.9.4.6.5.9.4.6.5.9.4.7.5.8.4.6.5.9.5.6.5.8.4.7.6.8.4.6.6 1 .3.4.4.6.6.8.5.8.5.6.6.8.4.6.6.8.5.6.6.8.4.5.7.8.4.6.7.8.4.5.7.8.3.5.8.9.3.3.8 1 .2.2 1 1 1 1.2a149.7 149.7 0 1 0-1-200c-3.5-19-8-37.7-13.4-56a199.6 199.6 0 1 1 125 355c-47.2 0-90.8-16.6-125-44.2 1.5-5 1.5-5 0 0l-.8-.6-.8-.7-.2-.2-.4-.3-.7-.5-.4-.4-.3-.3-.3-.2-.4-.3-.8-.8-.3-.2-.2-.1-.8-.8-.8-.7-.3-.2-1-1-.3-.2-.2-.2-.3-.3-.5-.5-.7-.6-.3-.2-.1-.2-.3-.2-.5-.5-.5-.5-.2-.2h-.1l-.1-.2-.3-.2-.5-.5-.5-.5-.2-.2-.2-.2-.2-.2-.7-.7-.5-.5-.3-.2-.1-.2-.4-.4-1-1-.1-.1-.9-.9-.8-.8-.1-.2-1-1-.4-.4-.1-.2-.3-.2-.5-.6-.7-.7-.2-.3-.3-.3a14 14 0 0 1-.5-.6l-.5-.5-.2-.2v-.2h-.2l-.2-.3-.4-.5-.5-.5-.2-.3-.1-.1-.3-.3-.6-.7-.5-.6-.2-.3-.2-.2-.3-.3-.8-1-.2-.3h-.1l-.7-1-.7-.8-.3-.4-.7-.9-.3-.4-.2-.2-.3-.4-.4-.4-.5-.7-.3-.4-.2-.2-.1-.2-1-1.3-.2-.2-.3-.5-.7-1-.2-.2-.2-.3-.4-.5-.3-.5-.3-.4-.4-.5-.3-.4-.1-.2-.4-.6-1.7-2.5Zm-321-223.6a198.5 198.5 0 0 1 34.4 111.8s8.6 81.7 19.2 119.9v.1-.1a449.4 449.4 0 0 0 432.7 329c247.8 0 449-201.1 449-448.9a449.1 449.1 0 0 0-654.5-399.2 602.1 602.1 0 0 0-36.3-37.1A499 499 0 0 1 1749 598.6a499 499 0 0 1-498.8 498.8 499.3 499.3 0 0 1-466.5-322c-.4-1-15.8-48-19.7-65a497 497 0 0 1-11.2-73.5l-4.4-40.2V593.1l-.1-.9v-1l-.1-.8v-1l-.1-.9-.1-1v-.8l-.2-1v-.8l-.1-1-.1-.9-.1-1v-.8l-.2-1-.1-.8-.2-1.2v-.6l-.3-1.5v-.3l-.3-1.8v-.5l-.3-1.3-.1-.6-.2-1.1-.2-.7-.2-1.1-.1-.7-.3-1-.1-.8-.2-1-.2-.8-.3-1-.1-.7-.3-1-.2-.7-.3-1-.1-.8-.3-1-.2-.7-.3-1.1-.2-.6-.4-1.4-.1-.3-.6-1.7v-.2l-.5-1.5-.2-.5-.4-1.2-.2-.6-.4-1-.2-.7-.4-1-.3-.7-.4-1-.2-.6-.4-1-.3-.6-.4-1-.3-.7-.4-1-.3-.6-.4-1-.3-.6-.5-1-.2-.6-.6-1.3-.2-.3-.7-1.5v-.1l-.8-1.5v.2c.2.2.3.3.3.5l.3.5.1.3-.1-.3-.3-.5-.2-.5-.1-.2-.3-.5-.5-1-.3-.6-.6-1-.3-.6-.5-1-.4-.6-.5-.9-.3-.6-.5-.9-.4-.6-.5-.9-.4-.6-.6-.9-.4-.6-.5-.9-.4-.6-.5-.8-.4-.7-.6-.8-.4-.6-.7-1-.3-.4-.3-.6-.7-.8-.5-.7-.5-.7-.5-.8-.5-.6-.6-.8-.4-.6-.6-.8-.5-.5-.6-.8-.4-.6-.7-.8-.4-.5-.7-.8-.4-.5-.7-.9-.3-.3-.8-1-.3-.2-.9-1-1-1.2a149.7 149.7 0 1 0 1 200c3.5 19 8 37.7 13.4 56a199.6 199.6 0 1 1-125-355c47.2 0 90.7 16.6 125 44.2-1.5 5-1.5 5 0 0l.8.7.8.6.2.2.3.3.7.6.5.3.3.3.3.2.3.4.9.7.3.3h.1l.8.8.8.7h.1l.2.2 1 1 .4.3.2.1.3.3.5.5.7.6.3.3h.1c0 .2.2.2.2.3l.5.5.5.5.3.2.1.1.1.1.3.2.5.5.5.5.2.2.1.2.3.2.7.7.5.5.2.2.2.2.4.4 1 1 .1.1v.1l.8.8.8.8.2.2 1 1 .3.4.2.2.2.2.5.6.7.7.2.3.1.1.3.3.4.5.5.5.2.3h.1l.1.2.2.2.5.5.5.6.2.2.1.2.3.2.6.7.4.6.3.3.1.2.4.4.8 1 .2.2.7 1 .7.8h.1l.3.4.7.9.3.4.2.3.3.3.3.4.5.7.4.4.1.2.2.2 1 1.3.1.3.4.5.7.9.1.2.3.3.3.5.4.5.3.4.4.5.2.4.2.2.4.6 1.7 2.5Zm351.3 176.7.2.2.2.6.3.5v.2h.1l-.1-.2-.3-.5-.2-.5-.2-.3Zm-13-42.1.1.9.2.9-.3-1.8Zm-355.5-45.6-.2-.9-.1-.9.3 1.8Zm-13-42-.2-.3-.2-.6-.3-.5-.1-.2v.2l.3.5.3.6.1.2Z"/>
    <path fill="#fff" d="M924.3 96.4a598.9 598.9 0 0 1 924.3 502.2 598.9 598.9 0 0 1-924.3 502.2A598.9 598.9 0 0 1 0 598.6 598.9 598.9 0 0 1 924.3 96.4ZM598.5 498.8a99.8 99.8 0 1 0 58.3 180.8 598.3 598.3 0 0 0 223.6 389.8A549 549 0 0 1 50 598.6a549 549 0 0 1 830.5-470.8 548 548 0 0 1 266.8 470.8c-.7 20.4 23 99.8 102.8 99.8a99.8 99.8 0 1 0-58.2-180.8A598.3 598.3 0 0 0 968 127.9a549 549 0 0 1 830.5 470.8 549 549 0 0 1-830.5 470.8 548 548 0 0 1-266.8-470.8c.7-20.4-22.9-99.8-102.8-99.8Zm651.3 199.6h.2-.2Zm-651.3-50a50 50 0 1 1 0-99.7 50 50 0 0 1 0 99.8Zm651.5-99.7a49.9 49.9 0 1 1 0 99.8 49.9 49.9 0 0 1 0-99.8Z"/>
    <path fill="url(#a)" d="M18057.3 15095.6s107.5 1221 1157.4 2009.2c0 0-626.1 440.3-1627.7 395.7l-20-2331.4s282.9 97.1 490.3-73.5Z" transform="translate(-2851.6 -2254) scale(.1943)"/>
    <path fill="url(#b)" d="M17984.6 15080.7s43.7 1110.4 1150.1 2022.7c0 0-650.8 421.8-1546.9 381.9l8.1-2298.9s247.7 59.4 388.7-105.7Z" transform="rotate(180 2343.2 1725.6) scale(.1943)"/>
  </g>
  <defs>
    <linearGradient id="a" x1="0" x2="1" y1="0" y2="0" gradientTransform="scale(961.688) rotate(-19.5 55.9 -45.7)" gradientUnits="userSpaceOnUse">
      <stop offset="0" stop-color="#221f20" stop-opacity="0"/>
      <stop offset="1" stop-color="#221f20"/>
    </linearGradient>
    <linearGradient id="b" x1="0" x2="1" y1="0" y2="0" gradientTransform="scale(1420.485) rotate(-22.2 34 -26.4)" gradientUnits="userSpaceOnUse">
      <stop offset="0" stop-color="#221f20" stop-opacity="0"/>
      <stop offset="1" stop-color="#221f20"/>
    </linearGradient>
  </defs>
</svg>