<svg xmlns="http://www.w3.org/2000/svg" fill="#473129" viewBox="0 0 24 24">
  <path d="M14.3 16 11 13V8.4h1.8v3.8l2.7 2.6-1.3 1.3ZM11 6.7V4.8h1.8v1.8h-1.8Zm6.3 6.3v-1.8h1.8v1.8h-1.8Zm-6.3 6.3v-1.8h1.8v1.8h-1.8Zm-6.3-6.3v-1.8h1.8v1.8H4.8ZM12 21a8.8 8.8 0 0 1-6.4-2.6 9 9 0 0 1-1.9-10A9 9 0 0 1 12 3a8.8 8.8 0 0 1 6.4 2.6 9 9 0 0 1 1.9 10A9 9 0 0 1 12 21Zm0-1.8a7 7 0 0 0 5.1-2 7 7 0 0 0 2.1-5.2 7 7 0 0 0-2-5.1A7 7 0 0 0 12 4.8a7 7 0 0 0-5.1 2A7 7 0 0 0 4.8 12a7 7 0 0 0 2 5.1 7 7 0 0 0 5.2 2.1Z"/>
</svg>