<svg xmlns="http://www.w3.org/2000/svg" fill="#473129" viewBox="0 0 24 24">
  <path d="m15.7 14 3.5.7c.4 0 .7.4.7.9v3.9c0 .5-.4 1-1 1A17 17 0 0 1 3 4.4c0-.6.4-1 1-1h3.8c.5 0 .9.3 1 .8l.7 3.4c0 .3 0 .6-.3.9L7 10.9c1.3 2.4 3.3 4.3 5.6 5.7l2.4-2.4s.4-.3.8-.2ZM7.1 5.4H5C5 6.7 5.5 7.9 6 9l1.5-1.5-.4-2.2Zm7.2 12c1.2.6 2.5.9 3.7 1v-2l-2.2-.5-1.5 1.5ZM20 6.7a6 6 0 0 0-8.6 0l-1-1a7.5 7.5 0 0 1 10.6 0l-1 1Zm-7.6 1a4.7 4.7 0 0 1 6.6 0l-1 1a3.3 3.3 0 0 0-4.6 0l-1-1ZM15.7 9c-.5 0-1 .2-1.3.6l1.3 1.3L17 9.7c-.3-.4-.8-.6-1.3-.6Z"/>
</svg>