<svg xmlns="http://www.w3.org/2000/svg" viewBox="0 0 24 24">
	<defs>
		<style>
			use {display: none;}
			use:target {display: block;}
			use[id*="brown-600"] {fill: #473129;}
		</style>
		<path id="badge-star" d="M14.2 12.5 15 16 12 14l-3 1.8.8-3.4L7 10.3l3.5-.3L12 6.8l1.4 3.2 3.5.3-2.7 2.2ZM12 4.4 18.2 7v4a9 9 0 0 1-6.2 8.6 9 9 0 0 1-6.2-8.6v-4L12 4.4Zm0-1.9L4 6V11c0 4.8 3.4 9.3 8 10.4 4.6-1 8-5.6 8-10.4V6l-8-3.5Z"/>
		<path id="badge-tick" d="M18.2 7 12 4.5 5.8 7v4a9 9 0 0 0 6.2 8.6 9 9 0 0 0 6.2-8.6v-4ZM4 6l8-3.5L20 6V11c0 4.8-3.4 9.3-8 10.4-4.6-1-8-5.6-8-10.4V6Zm3 6.9 1.2-1.3 2.1 2.3 5.5-5.7L17 9.4l-6.7 7L7 12.8Z"/>
		<path id="bandwidth" d="M4.6 11.2 3 9.4C4.2 8 5.5 6.9 7 6.2a10.9 10.9 0 0 1 6.8-1l-1.1 2.5a2 2 0 0 0-.4 0H12a9 9 0 0 0-4 .9c-1.3.6-2.5 1.5-3.4 2.6ZM7.8 15l-1.6-1.8a7.4 7.4 0 0 1 5.4-2.8l-1.3 2.8A6.1 6.1 0 0 0 7.8 15Zm3.7 4c-.4-.2-.7-.5-.9-1-.2-.4-.2-.8 0-1.3L15 6c0-.2.1-.2.2-.3h.3l.2.3v.3l-2.4 11.5c0 .5-.3.8-.7 1-.4.2-.8.3-1.2 0Zm4.7-4a4.6 4.6 0 0 0-.5-.5l.6-2.7a36.5 36.5 0 0 1 1.5 1.4l-1.6 1.8Zm3.2-3.7A10.7 10.7 0 0 0 16.8 9l.6-2.6a13.8 13.8 0 0 1 3.6 3l-1.6 1.8Z"/>
		<path id="building" d="M12 7V3H3v18h18V7h-9ZM6.6 19H4.8v-2h1.8v2Zm0-4H4.8v-2h1.8v2Zm0-4H4.8V9h1.8v2Zm0-4H4.8V5h1.8v2Zm3.6 12H8.4v-2h1.8v2Zm0-4H8.4v-2h1.8v2Zm0-4H8.4V9h1.8v2Zm0-4H8.4V5h1.8v2Zm9 12H12v-2h1.8v-2H12v-2h1.8v-2H12V9h7.2v10Zm-1.8-8h-1.8v2h1.8v-2Zm0 4h-1.8v2h1.8v-2Z"/>
		<path id="checklist" d="M18.7 5.3v10h-10v-10h10Zm0-1.6h-10c-1 0-1.7.7-1.7 1.6v10c0 1 .8 1.7 1.7 1.7h10c.9 0 1.6-.8 1.6-1.7v-10c0-.9-.7-1.6-1.6-1.6Zm-6.3 10-2.9-3 1.2-1.1 1.7 1.7L16.7 7l1.1 1.2-5.4 5.5ZM5.4 7H3.6v11.7c0 .9.7 1.6 1.6 1.6H17v-1.6H5.3V7Z"/>
		<path id="clock" d="M12 3a9 9 0 1 0 0 18 9 9 0 0 0 0-18Zm0 16.2a7.2 7.2 0 1 1 0-14.4 7.2 7.2 0 0 1 0 14.4Zm.4-11.7h-1.3v5.4l4.7 2.8.7-1-4-2.5V7.5Z"/>
		<path id="email" d="M12 3a9 9 0 0 0 0 18h4.5v-1.8H12c-4 0-7.2-3.3-7.2-7.2 0-4 3.3-7.2 7.2-7.2 4 0 7.2 3.3 7.2 7.2v1.3c0 .7-.6 1.4-1.3 1.4-.8 0-1.4-.7-1.4-1.4V12a4.5 4.5 0 1 0-1.3 3.2c.6.8 1.6 1.3 2.7 1.3 1.7 0 3.1-1.4 3.1-3.2V12c0-5-4-9-9-9Zm0 11.7a2.7 2.7 0 1 1 0-5.4 2.7 2.7 0 0 1 0 5.4Z"/>
		<path id="fire" d="m14.5 6.5-.4.5c-.4.6-.8.8-1.3.8-1 0-1.8-.8-1.8-2V2.5s-7 4-7 11c0 4.4 3.1 8 7 8s7-3.6 7-8c0-3-1.4-5.6-3.5-7Zm-3.5 13c-1 0-1.8-.9-1.8-2 0-.4.2-1 .6-1.3l1.2-1.4 1.3 1.4c.3.4.4.9.4 1.4 0 1-.7 1.9-1.7 1.9Zm3.5-1.5c0-.4.2-1.9-1-3.2L11 12l-2.5 2.8c-1.2 1.3-1 2.9-1 3.2a6.4 6.4 0 0 1-1.8-4.5c0-3.2 2-5.7 3.6-7.3.2 2 1.7 3.6 3.5 3.6.6 0 1.3-.2 1.9-.7 1 1.2 1.6 2.8 1.6 4.4 0 1.8-.7 3.4-1.8 4.5Z"/>
		<path id="flag" d="M19 4.8H6.8V3H5v18h1.8v-7.2H19l-1.8-4.5L19 4.8ZM15.6 10l.8 2H6.7V6.6H16.5l-.8 2-.2.7.2.7ZM13 9.3c0 1-.8 1.8-1.8 1.8s-1.7-.8-1.7-1.8.8-1.8 1.7-1.8c1 0 1.8.8 1.8 1.8Z"/>
		<path id="gauge" d="M10.6 15.3c.4.4.8.5 1.4.5.6 0 1-.2 1.3-.6l5-7.9-7.6 5.3c-.4.2-.6.7-.6 1.3 0 .5.1 1 .5 1.4Zm-4.8 4.2a1.8 1.8 0 0 1-1.6-.9 9.8 9.8 0 0 1-.5-8.4 9.6 9.6 0 0 1 4.8-5A8.4 8.4 0 0 1 17 6L15 7.2a6.6 6.6 0 0 0-3.1-.8c-2 0-3.7.7-5.1 2.2a7.4 7.4 0 0 0-2.1 5.3 7.5 7.5 0 0 0 1 3.7h12.4a7 7 0 0 0 .8-1.8 8.3 8.3 0 0 0 0-3.7 7 7 0 0 0-.6-1.5l1.1-1.8c.5.7.8 1.5 1 2.4a9 9 0 0 1 .2 5 10 10 0 0 1-1 2.4c0 .3-.3.5-.6.7l-.9.2H5.8Z"/>
		<path id="handshake" d="M12.2 18.3c-.2.1-.4.2-.6 0a.4.4 0 0 1 0-.6l2.8-2.7-1.2-1.1-2.8 2.7c-.1.2-.4.1-.5 0a.4.4 0 0 1 0-.6l2.7-2.7-1.1-1.1-2.8 2.7c-.1.1-.4.2-.6 0a.4.4 0 0 1 0-.6l2.8-2.7-1.2-1.1L7 13.2c-.2.1-.4.2-.6 0a.4.4 0 0 1 0-.6L10 9.1l1.5 1.5c.8.8 2.1.8 2.9 0 .8-.8.8-2 0-2.8l-1.5-1.5.2-.2c.6-.7 1.7-.7 2.3 0L19 9.5c.6.6.6 1.6 0 2.2l-6.7 6.6Zm7.8-5.4a3.2 3.2 0 0 0 0-4.6L16.6 5a3.3 3.3 0 0 0-4.7 0l-.2.3-.2-.3a3.3 3.3 0 0 0-4.6 0l-3 2.9a3.1 3.1 0 0 0-.3 4.1l1.2-1.1c-.3-.6-.2-1.4.3-1.9l3-2.8c.6-.7 1.6-.7 2.2 0l3 2.8v.6c-.2.2-.5.1-.6 0L10 6.9l-4.8 4.6a2 2 0 0 0 0 2.8c.3.3.8.5 1.2.6 0 .4.2.8.6 1.1.3.3.7.5 1.1.6 0 .4.3.8.6 1.1.3.3.7.5 1.2.6 0 .4.2.8.5 1.1.4.4 1 .6 1.5.6s1-.2 1.4-.6L20 13Z"/>
		<path id="happy" d="M12 15.6c-1.3 0-2.5-.7-3.1-1.8H7.4a5 5 0 0 0 9.2 0h-1.5c-.6 1-1.8 1.8-3.1 1.8ZM12 3a9 9 0 1 0 0 18 9 9 0 0 0 0-18Zm0 16.2a7.2 7.2 0 1 1 0-14.4 7.2 7.2 0 0 1 0 14.4Zm3.2-8.1a1.4 1.4 0 1 0 0-2.8 1.4 1.4 0 0 0 0 2.8Zm-5-1.4a1.4 1.4 0 1 1-2.8 0 1.4 1.4 0 0 1 2.8 0Z"/>
		<path id="heart" d="M16 3c-1.5 0-3 .8-4 2-1-1.2-2.5-2-4-2-2.8 0-5 2.4-5 5.4 0 3.7 3 6.7 7.7 11.3L12 21l1.3-1.3C18 15.1 21 12.1 21 8.4c0-3-2.2-5.4-5-5.4Zm-4 15.3c-4.4-4.3-7.2-7-7.2-9.9C4.8 6.4 6.2 5 8 5c1.3 0 2.7 1 3.2 2.3h1.6A3.5 3.5 0 0 1 16.1 5c1.8 0 3.1 1.4 3.1 3.4 0 2.8-2.8 5.6-7.1 9.9Z"/>
		<path id="icecream" d="M17.3 7.3A5.4 5.4 0 0 0 12 3a5.4 5.4 0 0 0-5.3 4.3 3.3 3.3 0 0 0-2.2 3c0 1.9 1.5 3.3 3.3 3.3h.3l4 7.4 3.8-7.4h.3c1.8 0 3.3-1.4 3.3-3.2 0-1.4-.9-2.6-2.2-3.1ZM12 17.4l-2.2-4.2a5.6 5.6 0 0 0 4.5 0L12 17.3Zm4.2-5.4c-.5 0-.9-.2-1.2-.5l-.5-.4-.5.3a3.8 3.8 0 0 1-4 0l-.5-.3-.5.4c-.3.3-.7.5-1.2.5-.9 0-1.6-.7-1.6-1.6 0-.8.6-1.5 1.4-1.6l.6-.2V8A3.7 3.7 0 0 1 12 4.6c2 0 3.6 1.5 3.7 3.4v.6l.7.1c.8.2 1.4.9 1.4 1.7 0 .9-.7 1.6-1.6 1.6Z"/>
		<path id="lightbulb" d="M7.4 19.4h3.2c0 .9-.7 1.6-1.6 1.6-.9 0-1.6-.7-1.6-1.6Zm-1.6-.9h6.4V17H5.8v1.6Zm9.2-7.7c0 3.1-2.1 4.8-3 5.3H6c-.9-.5-3-2.2-3-5.3a6 6 0 0 1 6-6.2 6 6 0 0 1 6 6.2Zm-1.6 0c0-2.5-2-4.5-4.4-4.5-2.4 0-4.4 2-4.4 4.5 0 2 1.2 3.2 1.9 3.7h5c.7-.5 1.9-1.7 1.9-3.7ZM18.9 9l-1.1.5 1.1.6.5 1 .5-1 1.1-.6-1.1-.5-.5-1-.5 1ZM17 8l.8-1.8 1.6-.7-1.6-.8L17 3l-.8 1.7-1.6.8 1.6.7L17 8Z"/>
		<path id="location" d="M4.8 9.2a6.7 6.7 0 1 1 13.4 0c0 5-6.7 12.5-6.7 12.5S4.8 14.2 4.8 9.2Zm6.7-4.8a4.8 4.8 0 0 0-4.8 4.8c0 2.7 2.8 7 4.8 9.5 2-2.6 4.8-6.7 4.8-9.5 0-2.6-2.2-4.8-4.8-4.8Zm2.4 4.2a2.4 2.4 0 1 1-4.8 0 2.4 2.4 0 0 1 4.8 0Z"/>
		<path id="mail" d="M19.8 5.8c0-1-.9-1.7-1.8-1.6L4.6 5.4c-.9.1-1.6 1-1.5 2l1 10.5c.1 1 1 1.7 1.9 1.6l13.3-1.3c1 0 1.6-1 1.5-1.9l-1-10.5Zm-1.6.1-6.3 5-7-3.7 13.3-1.3Zm1 10.6L5.8 17.8 5 8.9l7 3.8 6.3-5 .9 8.8Z"/>
		<path id="nodes" d="M18.75 8.3a2.23 2.23 0 0 0-2.24 2.38l-1.53.5a3.35 3.35 0 0 0-2.41-1.72v-1.6a2.24 2.24 0 0 0 1.68-2.14c0-1.23-1-2.22-2.25-2.22-1.24 0-2.25.99-2.25 2.22 0 1.03.72 1.9 1.69 2.15v1.6a3.35 3.35 0 0 0-2.42 1.71l-1.53-.5.01-.16c0-1.23-1-2.22-2.25-2.22S3 9.3 3 10.52c0 1.23 1 2.22 2.25 2.22.8 0 1.49-.4 1.89-1.01l1.52.5a3.3 3.3 0 0 0 .82 2.73l-1.06 1.3a2.23 2.23 0 0 0-3.17 2.02c0 1.23 1 2.22 2.25 2.22 1.24 0 2.25-.99 2.25-2.22 0-.5-.16-.96-.45-1.33l1.06-1.3c1.02.56 2.26.55 3.28 0l1.05 1.3a2.23 2.23 0 0 0 1.8 3.55c1.25 0 2.26-.99 2.26-2.22 0-1.22-1-2.21-2.25-2.21-.33 0-.64.06-.92.19l-1.06-1.31c.7-.77.97-1.77.82-2.73l1.52-.5a2.26 2.26 0 0 0 4.14-1.2c0-1.23-1-2.22-2.25-2.22Zm-13.5 2.96a.75.75 0 0 1-.75-.74c0-.4.34-.74.75-.74s.75.34.75.74c0 .4-.34.74-.75.74Zm2.25 7.76a.75.75 0 0 1-.75-.74c0-.4.34-.74.75-.74s.75.34.75.74c0 .4-.34.74-.75.74Zm3.75-13.3c0-.4.34-.74.75-.74s.75.33.75.74c0 .4-.34.74-.75.74a.75.75 0 0 1-.75-.74Zm.75 8.87a1.86 1.86 0 0 1-1.88-1.85c0-1.02.85-1.85 1.88-1.85 1.04 0 1.88.83 1.88 1.85s-.85 1.85-1.88 1.85Zm4.5 2.95c.41 0 .75.34.75.74 0 .4-.34.74-.75.74a.75.75 0 0 1-.75-.74c0-.4.34-.74.75-.74Zm2.25-6.28a.75.75 0 0 1-.75-.74c0-.4.34-.74.75-.74s.75.34.75.74c0 .4-.34.74-.75.74Z"/>
		<path id="phone" d="M6.5 5 7 7.6 5.8 8.8C5.4 7.6 5 6.3 5 5h1.5Zm9.9 12c.9.3 1.7.4 2.6.5V19c-1.3-.1-2.6-.4-3.8-.8l1.2-1.2ZM7.5 3H4a1 1 0 0 0-1 1 17 17 0 0 0 17 17c.6 0 1-.4 1-1v-3.5c0-.5-.4-1-1-1a11.4 11.4 0 0 1-3.9-.6 1 1 0 0 0-.7.3l-2.2 2.2a15.1 15.1 0 0 1-6.6-6.6l2.2-2.2c.3-.3.4-.7.3-1-.4-1.1-.6-2.3-.6-3.6 0-.5-.4-1-1-1Z"/>
		<path id="phone-ringing" d="M20.8 16.2a12.4 12.4 0 0 0-8.8-3.7c-3.4 0-6.5 1.4-8.8 3.7l-.2.5c0 .3 0 .5.2.6l1.9 2a.7.7 0 0 0 1 0c.6-.6 1.3-1.1 2-1.5.3-.1.5-.4.5-.7v-2.5a10.4 10.4 0 0 1 6.8 0v2.5c0 .3.2.6.5.7.7.4 1.4.9 2 1.5l.5.2.5-.2 1.9-2 .2-.6c0-.2 0-.4-.2-.5ZM7 16.6l-1.4 1-.8-.8a11 11 0 0 1 2.3-1.5v1.3Zm11.4 1-1.4-1v-1.3c.7.4 1.5.9 2.2 1.5l-.8.8Zm.5-9.7-1-1.1L15 9.6l1.1 1.1L18.9 8Zm-7.6-3.4h1.4v4h-1.4v-4Zm-3.5 6.2 1-1.1-2.6-2.8-1 1 2.6 3Z"/>
		<path id="phone-voip" d="m15.7 14 3.5.7c.4 0 .7.4.7.9v3.9c0 .5-.4 1-1 1A17 17 0 0 1 3 4.4c0-.6.4-1 1-1h3.8c.5 0 .9.3 1 .8l.7 3.4c0 .3 0 .6-.3.9L7 10.9c1.3 2.4 3.3 4.3 5.6 5.7l2.4-2.4s.4-.3.8-.2ZM7.1 5.4H5C5 6.7 5.5 7.9 6 9l1.5-1.5-.4-2.2Zm7.2 12c1.2.6 2.5.9 3.7 1v-2l-2.2-.5-1.5 1.5ZM20 6.7a6 6 0 0 0-8.6 0l-1-1a7.5 7.5 0 0 1 10.6 0l-1 1Zm-7.6 1a4.7 4.7 0 0 1 6.6 0l-1 1a3.3 3.3 0 0 0-4.6 0l-1-1ZM15.7 9c-.5 0-1 .2-1.3.6l1.3 1.3L17 9.7c-.3-.4-.8-.6-1.3-.6Z"/>
		<path id="piggybank" d="M14.6 10.7c0-.5.4-1 1-1 .4 0 .8.5.8 1s-.4.9-.9.9a.9.9 0 0 1-.9-1Zm-6.2-1h4.4V8H8.4v1.8Zm12.5-1.3v6.3l-2.5.8-1.5 5h-5v-1.8h-1.7v1.8h-5S3 12.9 3 10.2a5 5 0 0 1 5-5h4.4c.8-1 2.1-1.7 3.6-1.7a1.3 1.3 0 0 1 1.2 1.9l-.3 1 2 2h2ZM19 10.2h-.9l-3.1-3.1c0-.6 0-1.2.2-1.7-.9.2-1.6.8-1.9 1.7H8a3.1 3.1 0 0 0-3.1 3.1c0 1.7 1 6 1.8 8.5h1.8V17h5.3v1.8h1.8l1.4-4.6 2.2-.7v-3.2Z"/>
		<path id="rewind" d="M11 21c-2-.3-3.7-1.2-5-2.7A7.8 7.8 0 0 1 4 13a8 8 0 0 1 2.5-5.8l1.4 1.4A5.6 5.6 0 0 0 6 13a6 6 0 0 0 1.4 3.9c1 1.1 2.1 1.8 3.6 2v2Zm2 0v-2a6 6 0 0 0 3.6-2.1c1-1.1 1.4-2.4 1.4-3.9 0-1.7-.6-3-1.8-4.3A5.8 5.8 0 0 0 12 7l1 1.1-1.4 1.4L8.1 6l3.5-3.5L13 3.9 12 5c2.2 0 4.1.8 5.7 2.3A7.7 7.7 0 0 1 20 13c0 2-.7 3.8-2 5.3a7.8 7.8 0 0 1-5 2.6Z"/>
		<path id="spark" d="M11 21h-1l1-7H7.5c-.9 0-.3-.8-.3-.8L13 3h1l-1 7h3.5c.4 0 .6.2.4.7L11 21Z"/>
		<path id="star" d="m22 9.7-7.2-.6L12 2.5 9.2 9.1 2 9.7l5.5 4.8-1.7 7 6.2-3.7 6.2 3.7-1.6-7L22 9.7ZM12 16l-3.8 2.3 1-4.3L6 11l4.4-.4 1.7-4 1.7 4 4.4.4-3.3 2.9 1 4.3-3.8-2.3Z"/>
		<path id="stars" d="m11.3 9.2.8 2.8h2.5l-2 1.5.9 2.7-2.2-1.7-2.1 1.7.8-2.7L8 12h2.5l.8-2.8Zm-2.1 1H2.5l5.4 4L6 21l5.4-4.2 5.5 4.2-2.1-6.8 5.4-4h-6.6L11.3 3l-2.1 7.2ZM20.5 21l-1.7-5.4 3.7-2.7h-3l-2.7 2L18 19l2.5 1.9ZM16.6 8.4 15 3l-1 3.1.8 2.3h1.8Z"/>
		<path id="trolley" d="M16 12.9c.8 0 1.4-.4 1.7-1l3.2-5.8a.9.9 0 0 0-.8-1.3H6.8L5.9 3H3v1.8h1.8L8 11.6l-1.2 2.2c-.6 1.2.2 2.7 1.6 2.7h10.8v-1.8H8.4l1-1.8H16ZM7.7 6.6h11L16 11.1H9.8L7.6 6.6Zm.8 10.8a1.8 1.8 0 1 0 0 3.6 1.8 1.8 0 0 0 0-3.6Zm9 0a1.8 1.8 0 1 0 0 3.6 1.8 1.8 0 0 0 0-3.6Z"/>
		<path id="watch" d="M14.3 16 11 13V8.4h1.8v3.8l2.7 2.6-1.3 1.3ZM11 6.7V4.8h1.8v1.8h-1.8Zm6.3 6.3v-1.8h1.8v1.8h-1.8Zm-6.3 6.3v-1.8h1.8v1.8h-1.8Zm-6.3-6.3v-1.8h1.8v1.8H4.8ZM12 21a8.8 8.8 0 0 1-6.4-2.6 9 9 0 0 1-1.9-10A9 9 0 0 1 12 3a8.8 8.8 0 0 1 6.4 2.6 9 9 0 0 1 1.9 10A9 9 0 0 1 12 21Zm0-1.8a7 7 0 0 0 5.1-2 7 7 0 0 0 2.1-5.2 7 7 0 0 0-2-5.1A7 7 0 0 0 12 4.8a7 7 0 0 0-5.1 2A7 7 0 0 0 4.8 12a7 7 0 0 0 2 5.1 7 7 0 0 0 5.2 2.1Z"/>
		<path id="wifi" d="m3 9.1 1.6 1.8a9.8 9.8 0 0 1 14.8 0L21 9.1a12 12 0 0 0-18 0Zm6.5 7.2L12 19l2.5-2.7a3.2 3.2 0 0 0-5 0Zm-3.2-3.6 1.6 1.8c2.3-2.5 6-2.5 8.2 0l1.6-1.8a7.6 7.6 0 0 0-11.4 0Z"/>
		<path id="wifi-full" d="M12 3.5a13 13 0 0 0-10 5l10 12 10-12c-2.6-3.1-6-5-10-5Zm0 4c-2.4 0-4.6 1-6.4 2.5L4.4 8.6c2.2-2 4.8-3.1 7.6-3.1s5.4 1 7.6 3L18.4 10A9.7 9.7 0 0 0 12 7.5Z"/>
	</defs>

	<use id="badge-star-brown-600" href="#badge-star"/>
	<use id="badge-tick-brown-600" href="#badge-tick"/>
	<use id="bandwidth-brown-600" href="#bandwidth"/>
	<use id="building-brown-600" href="#building"/>
	<use id="checklist-brown-600" href="#checklist"/>
	<use id="clock-brown-600" href="#clock"/>
	<use id="email-brown-600" href="#email"/>
	<use id="fire-brown-600" href="#fire"/>
	<use id="flag-brown-600" href="#flag"/>
	<use id="gauge-brown-600" href="#gauge"/>
	<use id="handshake-brown-600" href="#handshake"/>
	<use id="happy-brown-600" href="#happy"/>
	<use id="heart-brown-600" href="#heart"/>
	<use id="icecream-brown-600" href="#icecream"/>
	<use id="lightbulb-brown-600" href="#lightbulb"/>
	<use id="location-brown-600" href="#location"/>
	<use id="mail-brown-600" href="#mail"/>
	<use id="nodes-brown-600" href="#nodes"/>
	<use id="phone-brown-600" href="#phone"/>
	<use id="phone-ringing-brown-600" href="#phone-ringing"/>
	<use id="phone-voip-brown-600" href="#phone-voip"/>
	<use id="piggybank-brown-600" href="#piggybank"/>
	<use id="rewind-brown-600" href="#rewind"/>
	<use id="spark-brown-600" href="#spark"/>
	<use id="star-brown-600" href="#star"/>
	<use id="stars-brown-600" href="#stars"/>
	<use id="trolley-brown-600" href="#trolley"/>
	<use id="watch-brown-600" href="#watch"/>
	<use id="wifi-brown-600" href="#wifi"/>
	<use id="wifi-full-brown-600" href="#wifi-full"/>
</svg>