<svg xmlns="http://www.w3.org/2000/svg" fill="#473129" viewBox="0 0 24 24">
  <path d="M17.3 7.3A5.4 5.4 0 0 0 12 3a5.4 5.4 0 0 0-5.3 4.3 3.3 3.3 0 0 0-2.2 3c0 1.9 1.5 3.3 3.3 3.3h.3l4 7.4 3.8-7.4h.3c1.8 0 3.3-1.4 3.3-3.2 0-1.4-.9-2.6-2.2-3.1ZM12 17.4l-2.2-4.2a5.6 5.6 0 0 0 4.5 0L12 17.3Zm4.2-5.4c-.5 0-.9-.2-1.2-.5l-.5-.4-.5.3a3.8 3.8 0 0 1-4 0l-.5-.3-.5.4c-.3.3-.7.5-1.2.5-.9 0-1.6-.7-1.6-1.6 0-.8.6-1.5 1.4-1.6l.6-.2V8A3.7 3.7 0 0 1 12 4.6c2 0 3.6 1.5 3.7 3.4v.6l.7.1c.8.2 1.4.9 1.4 1.7 0 .9-.7 1.6-1.6 1.6Z"/>
</svg>