<svg xmlns="http://www.w3.org/2000/svg" fill="#473129" viewBox="0 0 24 24">
  <path d="M20.8 16.2a12.4 12.4 0 0 0-8.8-3.7c-3.4 0-6.5 1.4-8.8 3.7l-.2.5c0 .3 0 .5.2.6l1.9 2a.7.7 0 0 0 1 0c.6-.6 1.3-1.1 2-1.5.3-.1.5-.4.5-.7v-2.5a10.4 10.4 0 0 1 6.8 0v2.5c0 .3.2.6.5.7.7.4 1.4.9 2 1.5l.5.2.5-.2 1.9-2 .2-.6c0-.2 0-.4-.2-.5ZM7 16.6l-1.4 1-.8-.8a11 11 0 0 1 2.3-1.5v1.3Zm11.4 1-1.4-1v-1.3c.7.4 1.5.9 2.2 1.5l-.8.8Zm.5-9.7-1-1.1L15 9.6l1.1 1.1L18.9 8Zm-7.6-3.4h1.4v4h-1.4v-4Zm-3.5 6.2 1-1.1-2.6-2.8-1 1 2.6 3Z"/>
</svg>