<svg xmlns="http://www.w3.org/2000/svg" fill="#473129" viewBox="0 0 24 24">
  <path d="M10.6 15.3c.4.4.8.5 1.4.5.6 0 1-.2 1.3-.6l5-7.9-7.6 5.3c-.4.2-.6.7-.6 1.3 0 .5.1 1 .5 1.4Zm-4.8 4.2a1.8 1.8 0 0 1-1.6-.9 9.8 9.8 0 0 1-.5-8.4 9.6 9.6 0 0 1 4.8-5A8.4 8.4 0 0 1 17 6L15 7.2a6.6 6.6 0 0 0-3.1-.8c-2 0-3.7.7-5.1 2.2a7.4 7.4 0 0 0-2.1 5.3 7.5 7.5 0 0 0 1 3.7h12.4a7 7 0 0 0 .8-1.8 8.3 8.3 0 0 0 0-3.7 7 7 0 0 0-.6-1.5l1.1-1.8c.5.7.8 1.5 1 2.4a9 9 0 0 1 .2 5 10 10 0 0 1-1 2.4c0 .3-.3.5-.6.7l-.9.2H5.8Z"/>
</svg>