<svg xmlns="http://www.w3.org/2000/svg" viewBox="150 120 700 250" fill="#231f20">
	<path d="M271.9 165.5h-24l-24.1 65-24-65h-24.6l35 98h26.5l35.2-98Z"/>
	<path d="m368.2 263.4-35.1-97.9h-22.9l-35 98h24.5l6.8-20.2h31.2l6.6 20.1h24Zm-36-36.7h-20.4L322 196l10.2 30.8Z"/>
	<path d="M473 263.4v-97.9h-22.2v55.8l-35.9-55.8h-28v98h22v-67.3l41.7 67.2h22.3Z"/>
	<path d="M526.6 165.5h-20.8v97.9h20.8z"/>
	<path d="M625.7 263.4v-19.6h-47.4v-78.3h-21.8v98h69.2Z"/>
	<path d="M716.2 263.4v-19.6h-47.4v-78.3H647v98h69.2Z"/>
	<path d="m824.8 263.4-35.1-97.9h-22.9l-35 98h24.5l6.8-20.2h31.2l6.6 20.1h24Zm-36-36.7h-20.4l10.2-30.8 10.2 30.8Z"/>
	<g id="tagline-sorted" fill="#5a3e34">
		<path d="M290.8 298.4c-.8 0-1.6-.3-2.1-.9a3 3 0 0 1-.9-2 3 3 0 0 1 3-3c.9 0 1.6.3 2.1.8.6.6 1 1.3 1 2.2 0 .8-.4 1.5-1 2-.5.7-1.2 1-2 1Zm-2 35.7v-29.9h4.2v30h-4.3Z"/>
		<path d="M304.3 334.1v-29.9h4.2v5h.3l1.4-2.2a9.2 9.2 0 0 1 7.4-3.4 9.8 9.8 0 0 1 9.2 5.6c.8 1.8 1.2 3.8 1.2 6v19h-4.2v-18.8c0-2.3-.6-4.2-1.8-5.7-1.2-1.6-3-2.3-5.4-2.3a7 7 0 0 0-4.6 1.4c-1.2 1-2 2.3-2.6 3.8-.6 1.6-.9 3.1-.9 4.8V334h-4.2Z"/>
		<path d="M349.2 334.7c-2.8 0-5-.7-6.3-2.2a8.2 8.2 0 0 1-2.2-6v-18.8h-5.4v-3.5h5.4v-7.6h4.3v7.6h7.3v3.5H345v18.8c0 3 1.6 4.5 4.8 4.5.8 0 1.6 0 2.4-.2l1.2-.2v3.6l-1.3.2c-.9.2-1.8.3-3 .3Z"/>
		<path d="M375.1 334.7c-2.4 0-4.5-.5-6.3-1.3-1.7-1-3.2-2.1-4.3-3.6-1.1-1.5-2-3.2-2.5-5a19.5 19.5 0 0 1 0-11.2c.5-1.9 1.4-3.5 2.5-5a12.3 12.3 0 0 1 10.4-5 12 12 0 0 1 11.2 7c1 2.2 1.6 5 1.6 8.5v1.3h-22.3c.1 1.9.5 3.6 1.3 5.3.8 1.6 1.9 2.9 3.3 3.9s3.1 1.4 5.1 1.4c1.7 0 3-.3 4.1-.9 1.1-.5 2-1.2 2.5-2a10.3 10.3 0 0 0 1.6-2.8h4l-.2.9-1 2.3a12.1 12.1 0 0 1-5.7 5.2 13 13 0 0 1-5.3 1Zm-9.6-17.7h18c-.1-2.3-.6-4.2-1.4-5.6a7.4 7.4 0 0 0-3.1-3 9 9 0 0 0-4.1-1c-2.7 0-4.9.8-6.5 2.6-1.7 1.7-2.6 4-2.9 7Z"/>
		<path d="M397.7 334.1v-29.9h4.2v3.9h.2a8.6 8.6 0 0 1 2.8-3.1c1.2-1 3-1.4 5.2-1.4a14.3 14.3 0 0 1 2.7.3v4h-.9c-.6-.2-1.2-.2-2-.2a9 9 0 0 0-4 1 6.4 6.4 0 0 0-3 3.1c-.6 1.5-1 3.5-1 6v16.3h-4.2Z"/>
		<path d="M421.6 334.1v-29.9h4.2v5h.3l1.4-2.2a9.2 9.2 0 0 1 7.4-3.4 9.8 9.8 0 0 1 9.2 5.6c.8 1.8 1.2 3.8 1.2 6v19h-4.2v-18.8c0-2.3-.6-4.2-1.8-5.7-1.2-1.6-3-2.3-5.4-2.3a7 7 0 0 0-4.6 1.4c-1.2 1-2 2.3-2.6 3.8-.6 1.6-.9 3.1-.9 4.8V334h-4.2Z"/>
		<path d="M469.4 334.7c-2.4 0-4.5-.5-6.3-1.3-1.8-1-3.2-2.1-4.4-3.6-1-1.5-2-3.2-2.5-5a19.6 19.6 0 0 1 0-11.2c.6-1.9 1.4-3.5 2.5-5a12.3 12.3 0 0 1 10.4-5 11.9 11.9 0 0 1 11.2 7c1.2 2.2 1.7 5 1.7 8.5v1.3h-22.3c0 1.9.5 3.6 1.3 5.3.7 1.6 1.8 2.9 3.3 3.9 1.4 1 3 1.4 5 1.4 1.7 0 3-.3 4.2-.9 1-.5 2-1.2 2.5-2a10.4 10.4 0 0 0 1.6-2.8h4l-.3.9-1 2.3a12.1 12.1 0 0 1-5.6 5.2 13 13 0 0 1-5.3 1Zm-9.6-17.7h18c-.1-2.3-.6-4.2-1.4-5.6a7.4 7.4 0 0 0-3.1-3 9 9 0 0 0-4.2-1c-2.6 0-4.8.8-6.5 2.6-1.6 1.7-2.6 4-2.8 7Z"/>
		<path d="M503.1 334.7c-2.8 0-4.9-.7-6.3-2.2a8.2 8.2 0 0 1-2.2-6v-18.8h-5.4v-3.5h5.4v-7.6h4.3v7.6h7.4v3.5h-7.4v18.8c0 3 1.6 4.5 4.8 4.5.9 0 1.7 0 2.4-.2l1.2-.2v3.6l-1.3.2c-.8.2-1.8.3-2.9.3Z"/>
		<path fill="#000" d="M520.3 334.6a3 3 0 0 1-2.3-1c-.5-.6-.8-1.3-.8-2.2a3 3 0 0 1 3-3 3 3 0 0 1 3.2 3 3 3 0 0 1-.9 2.3 3 3 0 0 1-2.2.9Z"/>
		<path d="M544.6 334.7c-2.3 0-4.1-.3-5.6-1a10 10 0 0 1-6-7.5l-.1-1h4.3l.2.9c0 .6.4 1.2.9 2a6 6 0 0 0 2.2 2c1 .6 2.4 1 4.2 1 1.9 0 3.4-.6 4.5-1.5 1.2-1 1.7-2.2 1.7-3.7 0-1.3-.4-2.4-1.4-3.1-.9-.8-2.1-1.3-3.7-1.7l-4-.9c-1.4-.3-2.8-.8-4-1.5a8 8 0 0 1-3-2.6c-.8-1-1.1-2.4-1.1-4 0-2.5.9-4.5 2.7-6 1.9-1.7 4.3-2.5 7.2-2.5 2 0 3.7.3 5 1a9.2 9.2 0 0 1 4.8 4.7 11.6 11.6 0 0 1 .9 3H550l-.2-.8c-.1-.5-.4-1-.8-1.7s-1-1.3-1.9-1.8c-.9-.5-2-.7-3.6-.7-2 0-3.4.4-4.3 1.4-1 1-1.5 2-1.5 3.2 0 1.2.5 2 1.3 2.7.8.7 2 1.2 3.5 1.6l4 1c2.5.5 4.5 1.5 6.1 2.9a7.1 7.1 0 0 1 2.4 5.7c0 1.6-.4 3-1.3 4.4a9 9 0 0 1-3.6 3.3 12 12 0 0 1-5.6 1.2Z"/>
		<path d="M577.8 334.7a13.4 13.4 0 0 1-10.8-4.8 15 15 0 0 1-2.7-5 18.5 18.5 0 0 1 0-11.5 15 15 0 0 1 2.7-5 13.4 13.4 0 0 1 10.8-4.8c2.4 0 4.4.5 6.3 1.3 1.8.9 3.3 2 4.5 3.5a17.9 17.9 0 0 1 0 21.4 13 13 0 0 1-4.5 3.6c-1.9.9-4 1.3-6.3 1.3Zm0-3.8a9 9 0 0 0 5.6-1.7c1.5-1.1 2.6-2.6 3.4-4.4a14.2 14.2 0 0 0 0-11.3c-.8-1.8-2-3.3-3.4-4.4a9 9 0 0 0-5.6-1.7 9 9 0 0 0-5.6 1.7 10.4 10.4 0 0 0-3.4 4.4 14.5 14.5 0 0 0 0 11.3c.8 1.8 1.9 3.3 3.4 4.4a9 9 0 0 0 5.6 1.7Z"/>
		<path d="M602.2 334.1v-29.9h4.3v3.9h.2a8.6 8.6 0 0 1 2.8-3.1c1.2-1 3-1.4 5.2-1.4a14.3 14.3 0 0 1 2.7.3v4h-1c-.5-.2-1.2-.2-1.9-.2a9 9 0 0 0-4.1 1 6.4 6.4 0 0 0-2.9 3.1c-.7 1.5-1 3.5-1 6v16.3h-4.3Z"/>
		<path d="M637.9 334.7c-2.8 0-4.9-.7-6.3-2.2a8.2 8.2 0 0 1-2.2-6v-18.8H624v-3.5h5.4v-7.6h4.3v7.6h7.4v3.5h-7.4v18.8c0 3 1.6 4.5 4.8 4.5a12.7 12.7 0 0 0 3.6-.4v3.6l-1.3.2c-.8.2-1.8.3-2.9.3Z"/>
		<path d="M663.8 334.7c-2.4 0-4.5-.5-6.3-1.3a12 12 0 0 1-4.3-3.6c-1.1-1.5-2-3.2-2.5-5a19.6 19.6 0 0 1 0-11.2c.5-1.9 1.4-3.5 2.5-5a12.3 12.3 0 0 1 10.4-5 12 12 0 0 1 11.2 7c1.1 2.2 1.7 5 1.7 8.5v1.3h-22.3c0 1.9.5 3.6 1.2 5.3.8 1.6 1.9 2.9 3.3 3.9s3.1 1.4 5.1 1.4c1.7 0 3-.3 4.1-.9 1.1-.5 2-1.2 2.5-2l1.3-2 .4-.8h4l-.3.9-1 2.3a12.1 12.1 0 0 1-5.7 5.2 13 13 0 0 1-5.3 1Zm-9.6-17.7h18c0-2.3-.6-4.2-1.4-5.6a7.4 7.4 0 0 0-3-3 9 9 0 0 0-4.2-1c-2.7 0-4.8.8-6.5 2.6-1.7 1.7-2.6 4-2.9 7Z"/>
		<path d="M699 334.7c-2.3 0-4.3-.5-6-1.3-1.6-1-3-2.1-4.2-3.6-1.1-1.5-2-3.1-2.5-5a19.7 19.7 0 0 1 0-11.3c.6-1.8 1.4-3.5 2.5-5s2.6-2.6 4.3-3.5c1.6-1 3.6-1.4 5.9-1.4 2 0 3.8.4 5.1 1 1.4.8 2.4 1.6 3.3 2.5.8 1 1.4 1.8 1.7 2.5h.4v-18.4h4.2v43h-4.2v-5.4h-.4c-.3.7-1 1.5-1.7 2.4a11.2 11.2 0 0 1-8.4 3.5Zm.6-3.7c2.2 0 4-.6 5.4-1.7 1.5-1.2 2.6-2.7 3.3-4.5a14.9 14.9 0 0 0 0-11.3c-.7-1.8-1.8-3.3-3.3-4.4a8.4 8.4 0 0 0-5.4-1.8c-2.2 0-4 .6-5.5 1.8a10.5 10.5 0 0 0-3.3 4.4 15.2 15.2 0 0 0 0 11.3c.7 1.8 1.8 3.3 3.3 4.5a8.6 8.6 0 0 0 5.5 1.7Z"/>
		<path fill="#000" d="M728.2 334.6a3 3 0 0 1-2.2-1c-.6-.6-.9-1.3-.9-2.2 0-.9.3-1.6.9-2.2a3 3 0 0 1 2.2-.9 3 3 0 0 1 3.2 3.1 3 3 0 0 1-1 2.3 3 3 0 0 1-2.2.9Z"/>
	</g>
</svg>