<svg xmlns="http://www.w3.org/2000/svg" viewBox="150 120 700 250" fill="#231f20">
	<path d="M271.9 165.5h-24l-24.1 65-24-65h-24.6l35 98h26.5l35.2-98Z"/>
	<path d="m368.2 263.4-35.1-97.9h-22.9l-35 98h24.5l6.8-20.2h31.2l6.6 20.1h24Zm-36-36.7h-20.4L322 196l10.2 30.8Z"/>
	<path d="M473 263.4v-97.9h-22.2v55.8l-35.9-55.8h-28v98h22v-67.3l41.7 67.2h22.3Z"/>
	<path d="M526.6 165.5h-20.8v97.9h20.8z"/>
	<path d="M625.7 263.4v-19.6h-47.4v-78.3h-21.8v98h69.2Z"/>
	<path d="M716.2 263.4v-19.6h-47.4v-78.3H647v98h69.2Z"/>
	<path d="m824.8 263.4-35.1-97.9h-22.9l-35 98h24.5l6.8-20.2h31.2l6.6 20.1h24Zm-36-36.7h-20.4l10.2-30.8 10.2 30.8Z"/>
	<g id="tagline-superior" fill="#5a3e34">
		<path d="M229.1 325.7c-1.8 0-3.4-.2-4.6-.8a8.4 8.4 0 0 1-5-6.3l-.2-.8h3.7l.1.7a5.3 5.3 0 0 0 2.6 3.4c.9.5 2 .8 3.5.8 1.6 0 2.9-.5 3.8-1.3 1-.8 1.4-1.8 1.4-3 0-1.1-.4-2-1.1-2.6-.8-.7-1.8-1.1-3.1-1.4l-3.3-.7-3.5-1.3c-1-.6-1.8-1.3-2.5-2.2-.6-.9-.9-2-.9-3.3 0-2 .8-3.8 2.3-5.1a9 9 0 0 1 6-2c1.7 0 3 .2 4.2.7a7.5 7.5 0 0 1 4 4 9.6 9.6 0 0 1 .7 2.5h-3.4l-.2-.6c-.1-.5-.3-1-.7-1.5-.3-.5-.8-1-1.6-1.5a6 6 0 0 0-3-.6c-1.6 0-2.8.4-3.6 1.2-.8.8-1.2 1.7-1.2 2.7 0 1 .3 1.7 1 2.3.8.6 1.7 1 3 1.3l3.3.8c2.1.5 3.8 1.3 5.1 2.4a6 6 0 0 1 2 4.8 7 7 0 0 1-1 3.7c-.8 1.1-1.8 2-3 2.7a10 10 0 0 1-4.8 1Z"/>
		<path d="M254 325.7c-2.5 0-4.5-.8-6-2.4a9.5 9.5 0 0 1-2.2-6.7v-16.3h3.5v16.2c0 2 .5 3.4 1.5 4.5 1 1 2.3 1.6 4 1.6 1.7 0 3-.4 4-1.3 1-1 1.7-2 2.2-3.4.4-1.4.7-2.8.7-4.3v-13.3h3.5v25h-3.5V321h-.3l-1.1 1.8c-.6.8-1.4 1.4-2.4 2a8 8 0 0 1-4 .8Z"/>
		<path d="M274.5 334.5v-34.2h3.6v4.4h.2l1.5-2a9 9 0 0 1 2.7-2c1.2-.6 2.6-.9 4.3-.9a10.2 10.2 0 0 1 8.5 4 16 16 0 0 1 0 17.8 10.2 10.2 0 0 1-8.5 4.1 8.8 8.8 0 0 1-7-3 16 16 0 0 1-1.5-2h-.2v13.8h-3.6Zm3.6-21.7c0 1.6.3 3.2 1 4.7a8.8 8.8 0 0 0 2.6 3.7c1.3 1 2.8 1.5 4.6 1.5a7 7 0 0 0 4.6-1.5 9 9 0 0 0 2.7-3.7 12.4 12.4 0 0 0 0-9.5 9 9 0 0 0-2.7-3.7 7.1 7.1 0 0 0-4.6-1.4c-1.8 0-3.3.4-4.6 1.4a8.8 8.8 0 0 0-2.7 3.7c-.6 1.6-.9 3.1-.9 4.8Z"/>
		<path d="M317.3 325.7c-2 0-3.7-.4-5.2-1-1.5-.8-2.7-1.8-3.6-3-1-1.3-1.7-2.7-2.1-4.3a16.4 16.4 0 0 1 0-9.3c.4-1.5 1.1-3 2-4.2a10.3 10.3 0 0 1 8.7-4.1 10 10 0 0 1 9.4 5.8c1 1.9 1.4 4.3 1.4 7.1v1h-18.6c0 1.6.4 3.1 1 4.5a8.2 8.2 0 0 0 2.8 3.2c1.1.8 2.6 1.3 4.2 1.3 1.4 0 2.6-.3 3.5-.8.9-.5 1.6-1 2-1.7.6-.6 1-1.2 1.1-1.6l.3-.8h3.4l-.3.8-.8 2a10 10 0 0 1-4.7 4.3c-1.2.6-2.7.8-4.5.8Zm-8-14.8h15c0-1.9-.4-3.4-1.1-4.6-.7-1.2-1.5-2-2.6-2.6-1-.5-2.2-.8-3.5-.8-2.2 0-4 .7-5.4 2.2a9.4 9.4 0 0 0-2.4 5.8Z"/>
		<path d="M336.2 325.2v-25h3.5v3.3h.2c.5-1 1.3-1.9 2.3-2.6 1-.7 2.5-1.1 4.4-1.1a11.3 11.3 0 0 1 2.2.2v3.4l-.7-.1-1.6-.1c-1.3 0-2.5.2-3.5.8-1 .5-1.8 1.4-2.4 2.6-.6 1.2-.9 3-.9 5v13.6h-3.5Z"/>
		<path d="M359.4 295.5c-.7 0-1.3-.3-1.8-.8-.4-.5-.7-1-.7-1.7a2.4 2.4 0 0 1 2.5-2.5c.7 0 1.3.2 1.8.7.5.5.7 1 .7 1.8 0 .7-.2 1.2-.7 1.7-.5.5-1 .8-1.8.8Zm-1.7 29.7v-25h3.5v25h-3.5Z"/>
		<path d="M382.1 325.7c-2 0-3.7-.3-5.2-1a12.5 12.5 0 0 1-6-7.1 15.5 15.5 0 0 1 0-9.7 11.2 11.2 0 0 1 11.3-8.2c1.9.1 3.6.5 5.1 1.2 1.5.7 2.8 1.7 3.8 2.9a13 13 0 0 1 2.3 4.1 15 15 0 0 1-2.3 13.8 11 11 0 0 1-3.8 3 12 12 0 0 1-5.2 1Zm0-3.1c1.8 0 3.4-.5 4.7-1.5 1.2-.9 2.2-2.1 2.8-3.6a11.8 11.8 0 0 0 0-9.5 8.9 8.9 0 0 0-2.8-3.6 7.6 7.6 0 0 0-4.7-1.4c-1.9 0-3.4.4-4.7 1.4a8.7 8.7 0 0 0-2.8 3.6 12 12 0 0 0 0 9.5 8.7 8.7 0 0 0 2.8 3.6c1.3 1 2.8 1.5 4.7 1.5Z"/>
		<path d="M402.5 325.2v-25h3.5v3.3h.2c.5-1 1.3-1.9 2.3-2.6 1-.7 2.5-1.1 4.4-1.1a11.3 11.3 0 0 1 2.2.2v3.4l-.7-.1-1.6-.1c-1.3 0-2.5.2-3.5.8-1 .5-1.8 1.4-2.4 2.6-.6 1.2-.9 3-.9 5v13.6h-3.5Z"/>
		<path fill="#000" d="M425.3 325.6c-.8 0-1.4-.2-1.9-.8-.5-.5-.7-1-.7-1.8a2.6 2.6 0 0 1 2.6-2.6c.7 0 1.4.2 1.9.7.5.5.7 1.2.7 1.9s-.2 1.4-.7 1.9c-.5.5-1.2.7-2 .7Z"/>
		<path d="M439.4 295.5c-.8 0-1.4-.3-1.8-.8-.5-.5-.7-1-.7-1.7a2.4 2.4 0 0 1 2.5-2.5c.7 0 1.2.2 1.7.7.5.5.8 1 .8 1.8 0 .7-.3 1.2-.8 1.7s-1 .8-1.7.8Zm-1.8 29.7v-25h3.6v25h-3.6Z"/>
		<path d="M450.6 325.2v-25h3.6v4.2h.2c.2-.5.6-1 1.2-1.8.5-.7 1.3-1.4 2.3-2 1-.5 2.3-.8 3.8-.8 1.9 0 3.5.4 4.8 1.3 1.2.8 2.2 2 3 3.4.6 1.5 1 3 1 5v15.7h-3.6v-15.6c0-2-.5-3.5-1.5-4.8-1-1.3-2.5-1.9-4.5-1.9-1.6 0-2.9.4-3.8 1.2-1 .8-1.8 1.9-2.2 3.2-.5 1.3-.7 2.6-.7 4v14h-3.6Z"/>
		<path d="M488.1 325.7c-2.3 0-4-.6-5.3-1.8a6.8 6.8 0 0 1-1.8-5v-15.7h-4.5v-3h4.5V294h3.6v6.3h6.1v2.9h-6.1v15.7c0 2.5 1.3 3.8 4 3.8l2-.2 1-.2v3l-1 .2-2.5.2Z"/>
		<path d="M509.7 325.7c-2 0-3.7-.4-5.2-1a10 10 0 0 1-3.6-3c-1-1.3-1.7-2.7-2.1-4.3a16.4 16.4 0 0 1 0-9.3 13 13 0 0 1 2-4.2 10.3 10.3 0 0 1 8.7-4.1 10 10 0 0 1 9.4 5.8c1 1.9 1.4 4.3 1.4 7.1v1h-18.6c0 1.6.4 3.1 1 4.5a8.1 8.1 0 0 0 2.8 3.2c1.1.8 2.6 1.3 4.2 1.3 1.4 0 2.6-.3 3.5-.8.9-.5 1.6-1 2-1.7.6-.6.9-1.2 1.1-1.6l.3-.8h3.4l-.3.8-.8 2a10 10 0 0 1-4.7 4.3c-1.2.6-2.7.8-4.5.8Zm-8-14.8h15c0-1.9-.4-3.4-1.1-4.6-.7-1.2-1.6-2-2.6-2.6-1-.5-2.2-.8-3.5-.8-2.2 0-4 .7-5.4 2.2a9.4 9.4 0 0 0-2.4 5.8Z"/>
		<path d="M528.6 325.2v-25h3.5v3.3h.2c.5-1 1.3-1.9 2.3-2.6 1-.7 2.5-1.1 4.4-1.1a11.3 11.3 0 0 1 2.2.2v3.4l-.7-.1-1.6-.1c-1.3 0-2.5.2-3.5.8-1 .5-1.8 1.4-2.4 2.6-.6 1.2-.9 3-.9 5v13.6h-3.5Z"/>
		<path d="M548.6 325.2v-25h3.5v4.2h.2l1.2-1.8c.6-.7 1.4-1.4 2.4-2 1-.5 2.3-.8 3.8-.8 1.8 0 3.4.4 4.7 1.3 1.3.8 2.3 2 3 3.4.6 1.5 1 3 1 5v15.7h-3.5v-15.6c0-2-.5-3.5-1.6-4.8-1-1.3-2.5-1.9-4.5-1.9-1.5 0-2.8.4-3.8 1.2-1 .8-1.7 1.9-2.2 3.2-.5 1.3-.7 2.6-.7 4v14h-3.5Z"/>
		<path d="M588.4 325.7c-2 0-3.7-.4-5.2-1-1.5-.8-2.7-1.8-3.6-3-1-1.3-1.7-2.7-2.1-4.3a16.4 16.4 0 0 1 0-9.3 13 13 0 0 1 2-4.2 10.3 10.3 0 0 1 8.8-4.1 10 10 0 0 1 9.4 5.8c.8 1.9 1.3 4.3 1.3 7.1v1h-18.6c0 1.6.4 3.1 1 4.5a8.1 8.1 0 0 0 2.8 3.2c1.2.8 2.6 1.3 4.2 1.3 1.4 0 2.6-.3 3.5-.8.9-.5 1.6-1 2-1.7.6-.6 1-1.2 1.1-1.6l.3-.8h3.4l-.3.8-.8 2a10 10 0 0 1-4.7 4.3c-1.2.6-2.7.8-4.5.8Zm-8-14.8h15c0-1.9-.4-3.4-1-4.6-.8-1.2-1.6-2-2.7-2.6-1-.5-2.2-.8-3.4-.8-2.3 0-4 .7-5.5 2.2a9.4 9.4 0 0 0-2.4 5.8Z"/>
		<path d="M616.6 325.7c-2.3 0-4-.6-5.3-1.8a6.8 6.8 0 0 1-1.7-5v-15.7H605v-3h4.6V294h3.5v6.3h6.2v2.9H613v15.7c0 2.5 1.3 3.8 4 3.8l2-.2 1-.2v3l-1 .2-2.5.2Z"/>
		<path fill="#000" d="M631 325.6c-.8 0-1.4-.2-1.9-.8-.5-.5-.7-1-.7-1.8a2.5 2.5 0 0 1 2.6-2.6c.7 0 1.3.2 1.8.7.5.5.8 1.2.8 1.9a2.6 2.6 0 0 1-2.6 2.6Z"/>
		<path d="M651.3 325.7c-2 0-3.5-.2-4.7-.8a8.4 8.4 0 0 1-4.4-4.3l-.6-2-.1-.8h3.6l.1.7c.1.5.4 1 .8 1.7a5 5 0 0 0 1.8 1.7c.9.5 2 .8 3.5.8 1.6 0 2.9-.5 3.8-1.3 1-.8 1.5-1.8 1.5-3 0-1.1-.4-2-1.2-2.6-.8-.7-1.8-1.1-3-1.4l-3.4-.7c-1.2-.4-2.4-.8-3.4-1.3-1-.6-1.9-1.3-2.5-2.2-.7-.9-1-2-1-3.3 0-2 .8-3.8 2.3-5.1a9 9 0 0 1 6-2c1.7 0 3.1.2 4.2.7a7.5 7.5 0 0 1 4 4 9.6 9.6 0 0 1 .7 2.5H656l-.2-.6c0-.5-.3-1-.6-1.5-.4-.5-.9-1-1.6-1.5a6 6 0 0 0-3-.6c-1.7 0-2.9.4-3.7 1.2-.8.8-1.2 1.7-1.2 2.7 0 1 .4 1.7 1 2.3.8.6 1.8 1 3 1.3l3.3.8c2.1.5 3.8 1.3 5.2 2.4a6 6 0 0 1 2 4.8 7 7 0 0 1-1.1 3.7c-.7 1.1-1.7 2-3 2.7a10 10 0 0 1-4.7 1Z"/>
		<path d="M670.2 295.5c-.7 0-1.3-.3-1.8-.8-.4-.5-.7-1-.7-1.7s.3-1.3.7-1.8c.5-.5 1.1-.7 1.8-.7s1.3.2 1.8.7c.5.5.7 1 .7 1.8 0 .7-.2 1.2-.7 1.7-.5.5-1 .8-1.8.8Zm-1.7 29.7v-25h3.5v25h-3.5Z"/>
		<path d="M681.5 325.2v-25h3.5v4.1h.2l1.2-1.8c.6-.7 1.4-1.4 2.3-1.9 1-.5 2.2-.8 3.7-.8 1.9 0 3.5.5 4.8 1.4 1.3 1 2.3 2.3 2.9 4a11 11 0 0 1 3-3.8c1.2-1 3-1.6 5.1-1.6 2.6 0 4.7 1 6.2 2.7 1.5 1.9 2.2 4.3 2.2 7.2v15.5h-3.5V310c0-2.2-.5-3.9-1.5-5.1a5.1 5.1 0 0 0-4.2-1.9c-1.6 0-2.8.4-3.8 1.3s-1.7 2-2.1 3.3c-.5 1.3-.7 2.6-.7 4v13.7h-3.5V310a8 8 0 0 0-1.5-5.1 5 5 0 0 0-4.2-1.9c-1.6 0-2.8.4-3.8 1.3s-1.7 2-2.1 3.3c-.5 1.3-.7 2.7-.7 4v13.7h-3.5Z"/>
		<path d="M726 334.5v-34.2h3.5v4.4h.2l1.5-2c.7-.8 1.6-1.5 2.7-2 1.2-.6 2.6-.9 4.3-.9a10.2 10.2 0 0 1 8.5 4 16 16 0 0 1 2.1 13.6c-.5 1.6-1.2 3-2.1 4.2a10.2 10.2 0 0 1-8.5 4.1 8.9 8.9 0 0 1-7-3c-.6-.7-1.2-1.4-1.5-2h-.2v13.8h-3.6Zm3.5-21.7c0 1.6.3 3.2 1 4.7a8.8 8.8 0 0 0 2.6 3.7c1.3 1 2.8 1.5 4.6 1.5a7 7 0 0 0 4.6-1.5 9 9 0 0 0 2.7-3.7 12.4 12.4 0 0 0 0-9.5 9 9 0 0 0-2.7-3.7 7.1 7.1 0 0 0-4.6-1.4c-1.8 0-3.3.4-4.6 1.4a8.8 8.8 0 0 0-2.7 3.7c-.6 1.6-.9 3.1-.9 4.8Z"/>
		<path d="M758.2 325.2v-35.8h3.6v35.8h-3.6Z"/>
		<path d="M782.2 325.7c-2 0-3.8-.4-5.3-1-1.4-.8-2.7-1.8-3.6-3-1-1.3-1.6-2.7-2.1-4.3a16.4 16.4 0 0 1 0-9.3c.5-1.5 1.2-3 2.1-4.2a10.3 10.3 0 0 1 8.7-4.1 10 10 0 0 1 9.4 5.8c.9 1.9 1.3 4.3 1.3 7.1v1h-18.6c0 1.6.4 3.1 1 4.5a8.2 8.2 0 0 0 2.8 3.2c1.2.8 2.6 1.3 4.3 1.3 1.3 0 2.5-.3 3.4-.8 1-.5 1.6-1 2.1-1.7.5-.6.8-1.2 1-1.6l.3-.8h3.4l-.2.8a11.8 11.8 0 0 1-2.7 4.3 9.6 9.6 0 0 1-7.3 2.8Zm-8-14.8h15c-.1-1.9-.5-3.4-1.2-4.6-.6-1.2-1.5-2-2.6-2.6-1-.5-2.2-.8-3.4-.8-2.3 0-4 .7-5.4 2.2a9.4 9.4 0 0 0-2.5 5.8Z"/>
		<path fill="#000" d="M803.8 325.6c-.8 0-1.4-.2-1.9-.8-.5-.5-.7-1-.7-1.8a2.6 2.6 0 0 1 2.6-2.6c.7 0 1.4.2 1.9.7.5.5.7 1.2.7 1.9s-.2 1.4-.7 1.9c-.5.5-1.2.7-2 .7Z"/>
	</g>
</svg>