<svg xmlns="http://www.w3.org/2000/svg" fill="#473129" viewBox="0 0 24 24">
  <path d="M4.6 11.2 3 9.4C4.2 8 5.5 6.9 7 6.2a10.9 10.9 0 0 1 6.8-1l-1.1 2.5a2 2 0 0 0-.4 0H12a9 9 0 0 0-4 .9c-1.3.6-2.5 1.5-3.4 2.6ZM7.8 15l-1.6-1.8a7.4 7.4 0 0 1 5.4-2.8l-1.3 2.8A6.1 6.1 0 0 0 7.8 15Zm3.7 4c-.4-.2-.7-.5-.9-1-.2-.4-.2-.8 0-1.3L15 6c0-.2.1-.2.2-.3h.3l.2.3v.3l-2.4 11.5c0 .5-.3.8-.7 1-.4.2-.8.3-1.2 0Zm4.7-4a4.6 4.6 0 0 0-.5-.5l.6-2.7a36.5 36.5 0 0 1 1.5 1.4l-1.6 1.8Zm3.2-3.7A10.7 10.7 0 0 0 16.8 9l.6-2.6a13.8 13.8 0 0 1 3.6 3l-1.6 1.8Z"/>
</svg>