<svg xmlns="http://www.w3.org/2000/svg" fill="#473129" viewBox="0 0 24 24">
  <path d="M12.2 18.3c-.2.1-.4.2-.6 0a.4.4 0 0 1 0-.6l2.8-2.7-1.2-1.1-2.8 2.7c-.1.2-.4.1-.5 0a.4.4 0 0 1 0-.6l2.7-2.7-1.1-1.1-2.8 2.7c-.1.1-.4.2-.6 0a.4.4 0 0 1 0-.6l2.8-2.7-1.2-1.1L7 13.2c-.2.1-.4.2-.6 0a.4.4 0 0 1 0-.6L10 9.1l1.5 1.5c.8.8 2.1.8 2.9 0 .8-.8.8-2 0-2.8l-1.5-1.5.2-.2c.6-.7 1.7-.7 2.3 0L19 9.5c.6.6.6 1.6 0 2.2l-6.7 6.6Zm7.8-5.4a3.2 3.2 0 0 0 0-4.6L16.6 5a3.3 3.3 0 0 0-4.7 0l-.2.3-.2-.3a3.3 3.3 0 0 0-4.6 0l-3 2.9a3.1 3.1 0 0 0-.3 4.1l1.2-1.1c-.3-.6-.2-1.4.3-1.9l3-2.8c.6-.7 1.6-.7 2.2 0l3 2.8v.6c-.2.2-.5.1-.6 0L10 6.9l-4.8 4.6a2 2 0 0 0 0 2.8c.3.3.8.5 1.2.6 0 .4.2.8.6 1.1.3.3.7.5 1.1.6 0 .4.3.8.6 1.1.3.3.7.5 1.2.6 0 .4.2.8.5 1.1.4.4 1 .6 1.5.6s1-.2 1.4-.6L20 13Z"/>
</svg>