<svg xmlns="http://www.w3.org/2000/svg" fill="#473129" viewBox="0 0 24 24">
  <path d="M18.75 8.3a2.23 2.23 0 0 0-2.24 2.38l-1.53.5a3.35 3.35 0 0 0-2.41-1.72v-1.6a2.24 2.24 0 0 0 1.68-2.14c0-1.23-1-2.22-2.25-2.22-1.24 0-2.25.99-2.25 2.22 0 1.03.72 1.9 1.69 2.15v1.6a3.35 3.35 0 0 0-2.42 1.71l-1.53-.5.01-.16c0-1.23-1-2.22-2.25-2.22S3 9.3 3 10.52c0 1.23 1 2.22 2.25 2.22.8 0 1.49-.4 1.89-1.01l1.52.5a3.3 3.3 0 0 0 .82 2.73l-1.06 1.3a2.23 2.23 0 0 0-3.17 2.02c0 1.23 1 2.22 2.25 2.22 1.24 0 2.25-.99 2.25-2.22 0-.5-.16-.96-.45-1.33l1.06-1.3c1.02.56 2.26.55 3.28 0l1.05 1.3a2.23 2.23 0 0 0 1.8 3.55c1.25 0 2.26-.99 2.26-2.22 0-1.22-1-2.21-2.25-2.21-.33 0-.64.06-.92.19l-1.06-1.31c.7-.77.97-1.77.82-2.73l1.52-.5a2.26 2.26 0 0 0 4.14-1.2c0-1.23-1-2.22-2.25-2.22Zm-13.5 2.96a.75.75 0 0 1-.75-.74c0-.4.34-.74.75-.74s.75.34.75.74c0 .4-.34.74-.75.74Zm2.25 7.76a.75.75 0 0 1-.75-.74c0-.4.34-.74.75-.74s.75.34.75.74c0 .4-.34.74-.75.74Zm3.75-13.3c0-.4.34-.74.75-.74s.75.33.75.74c0 .4-.34.74-.75.74a.75.75 0 0 1-.75-.74Zm.75 8.87a1.86 1.86 0 0 1-1.88-1.85c0-1.02.85-1.85 1.88-1.85 1.04 0 1.88.83 1.88 1.85s-.85 1.85-1.88 1.85Zm4.5 2.95c.41 0 .75.34.75.74 0 .4-.34.74-.75.74a.75.75 0 0 1-.75-.74c0-.4.34-.74.75-.74Zm2.25-6.28a.75.75 0 0 1-.75-.74c0-.4.34-.74.75-.74s.75.34.75.74c0 .4-.34.74-.75.74Z"/>
</svg>
